<svg xmlns="http://www.w3.org/2000/svg" width="54" height="27" viewBox="0 0 54 27">
  <g id="Grupo_71" data-name="Grupo 71" transform="translate(0.209 -0.488)">
    <rect id="Retângulo_100" data-name="Retângulo 100" width="54" height="27" rx="2" transform="translate(-0.209 0.488)" fill="#fff"/>
    <path id="logo-blue-box-small-45-9x45-a" d="M1541.045,151.843h-17.367V134.476h17.367Z" transform="translate(-1509.61 -129.58)" fill="#fff"/>
    <g id="Grupo_70" data-name="Grupo 70" transform="translate(18.41 4.904)">
      <path id="path5" d="M1544.25,143.881v-9.4h-17.367v17.367h17.367v-5.068c-.04,0,0-2.9,0-2.9" transform="translate(-1526.883 -134.482)" fill="#006fcd"/>
      <path id="path7" d="M1542.123,141.506h1.314V138.45h-1.431v.425l-.271-.425H1540.5v.542l-.232-.542h-2.281c-.077,0-.156.039-.233.039s-.115.039-.192.077-.116.039-.194.077v-.194h-6.536l-.194.5-.194-.5h-1.547v.542l-.232-.542h-1.238l-.542,1.315v1.741h.89l.154-.425h.31l.154.425h6.807v-.386l.271.386h1.9v-.232c.038.038.115.038.155.077s.116.038.154.077a.5.5,0,0,0,.233.038h1.391l.156-.425h.309l.155.425h1.9v-.386Zm2.127,3.868v-2.862h-10.637l-.271.387-.27-.387h-3.1v3.056h3.1l.27-.387.271.387h1.935v-.657h-.077a1.877,1.877,0,0,0,.7-.117v.813h1.393v-.387l.27.387h5.764A3.348,3.348,0,0,0,1544.25,145.374Z" transform="translate(-1526.883 -133.075)" fill="#fff"/>
      <path id="path9" d="M1543.593,144.507h-1.044v.425h1a.641.641,0,0,0,.7-.658.541.541,0,0,0-.619-.58h-.463a.193.193,0,1,1,0-.386h.889l.194-.425h-1.044a.632.632,0,0,0-.7.618.542.542,0,0,0,.619.581h.465a.182.182,0,0,1,.192.192c.04.156-.038.233-.192.233Zm-1.9,0h-1.044v.425h1.005a.641.641,0,0,0,.7-.658.541.541,0,0,0-.619-.58h-.463a.193.193,0,1,1,0-.386h.889l.194-.425h-1.044a.632.632,0,0,0-.7.618.542.542,0,0,0,.619.581h.465a.182.182,0,0,1,.192.192.18.18,0,0,1-.192.233Zm-1.355-1.238v-.425h-1.624v2.05h1.624v-.425h-1.159v-.425h1.122v-.425h-1.122v-.386h1.159Zm-2.629,0c.194,0,.271.117.271.232s-.077.233-.271.233h-.581v-.5Zm-.581.89h.233l.619.734h.58l-.7-.773a.62.62,0,0,0,.542-.619.64.64,0,0,0-.7-.657h-1.084v2.05h.465Zm-1.237-.619a.244.244,0,0,1-.271.271h-.619v-.542h.58a.277.277,0,0,1,.31.271Zm-1.354-.7v2.05h.465v-.7h.619a.68.68,0,0,0,.734-.7.67.67,0,0,0-.7-.7Zm-.7,2.05h.58l-.813-1.044.813-1.005h-.58l-.5.657-.5-.657h-.58l.813,1.005-.813,1.007h.58l.5-.658Zm-1.741-1.624v-.425h-1.624v2.05h1.624v-.425h-1.161v-.425h1.122v-.425h-1.122v-.386h1.161Zm9.4-3.636.811,1.238h.581v-2.05h-.465v1.353l-.116-.194-.734-1.16h-.619v2.05h.465v-1.393Zm-2.012-.038.155-.425.156.425.192.463h-.7Zm.813,1.276h.5l-.89-2.05h-.619l-.889,2.05h.5l.194-.425h1.005Zm-2.166,0,.194-.425h-.116a.52.52,0,0,1-.542-.581v-.038a.519.519,0,0,1,.542-.58h.5v-.425h-.542a.923.923,0,0,0-.966,1.005v.038a.9.9,0,0,0,.928,1.007Zm-1.741,0h.465V138.86h-.465Zm-1.005-1.624c.192,0,.27.115.27.232s-.077.232-.27.232h-.581v-.5Zm-.581.889h.233l.618.736h.581l-.7-.773a.621.621,0,0,0,.542-.619.639.639,0,0,0-.7-.657h-1.084v2.05h.465Zm-.851-.889v-.425h-1.624v2.05h1.624v-.425h-1.16v-.425h1.122V139.6H1532.8v-.387h1.16Zm-3.52,1.624h.425l.58-1.664v1.664h.465v-2.05h-.773l-.465,1.391-.463-1.391h-.773v2.05h.463v-1.664Zm-2.514-1.276.154-.425.156.425.192.463h-.7Zm.813,1.276h.5l-.89-2.05h-.58l-.89,2.05h.5l.194-.425h1.005Z" transform="translate(-1526.883 -132.943)" fill="#006fcd"/>
    </g>
  </g>
</svg>
