<svg xmlns="http://www.w3.org/2000/svg" width="54" height="27" viewBox="0 0 54 27">
  <g id="Grupo_78" data-name="Grupo 78" transform="translate(0 -0.488)">
    <rect id="Retângulo_104" data-name="Retângulo 104" width="54" height="27" rx="2" transform="translate(0 0.488)" fill="#fff"/>
    <path id="path4" d="M1475.688,134.5h.341v9.072h-.341Zm.683,0h.341v9.072h-.341Zm2.052,0h.341v9.072h-.341Zm6.651,0h.341v9.072h-.341Zm2.223,0h.341v9.072h-.341Zm2.156,0h.341v9.072h-.341Zm.555,0h.341v9.072h-.341Zm.557,0h.341v9.072h-.341Zm.625,0h.343v9.072h-.343Zm.626,0h.341v9.072h-.341Zm1.738,0h.342v9.072h-.342Zm4.311,0h.342v9.072h-.342Zm4.5,0h.341v9.072h-.341Zm1.229,0h.343v9.072h-.343Zm.889,0h.343v9.072h-.343Zm.547,0h.342v9.072h-.342Zm-24.347,0h.342v9.072h-.342Zm-3.419,0h.615v9.072h-.615Zm4.061,0h.615v9.072h-.615Zm2.85,0h.616v9.072h-.616Zm1.46,0h.615v9.072h-.615Zm2.293,0h.615v9.072h-.615Zm6.54,0h.958v9.072h-.958Zm1.25,0h.752v9.072h-.752Zm1.319,0h.615v9.072h-.615Zm1.743,0h1.025v9.072h-1.025Zm2.009,0h1.025v9.072h-1.025Zm-21.681,0h1.23v9.072h-1.23Zm3.189,0h.958v9.072h-.958Z" transform="translate(-1463.435 -129.573)" fill="#010101"/>
    <path id="path6" d="M1475.649,148.524V143.33h1.948a2.417,2.417,0,0,1,.955.158,1.227,1.227,0,0,1,.564.485,1.279,1.279,0,0,1,.2.685,1.18,1.18,0,0,1-.18.627,1.3,1.3,0,0,1-.546.474,1.343,1.343,0,0,1,.725.471,1.255,1.255,0,0,1,.253.786,1.511,1.511,0,0,1-.153.679,1.319,1.319,0,0,1-.382.484,1.6,1.6,0,0,1-.569.257,3.485,3.485,0,0,1-.837.087Zm.687-3.011h1.123a2.462,2.462,0,0,0,.653-.06.725.725,0,0,0,.4-.259.748.748,0,0,0,.133-.452.841.841,0,0,0-.125-.455.618.618,0,0,0-.351-.27,2.977,2.977,0,0,0-.79-.073h-1.039Zm0,2.4h1.293a3,3,0,0,0,.468-.024,1.12,1.12,0,0,0,.4-.145.754.754,0,0,0,.261-.291.9.9,0,0,0,.1-.435.861.861,0,0,0-.147-.508.789.789,0,0,0-.413-.3,2.526,2.526,0,0,0-.76-.087h-1.2Zm4.24-1.917a2.827,2.827,0,0,1,.694-2.025,2.363,2.363,0,0,1,1.792-.732,2.5,2.5,0,0,1,1.3.344,2.248,2.248,0,0,1,.881.959,3.1,3.1,0,0,1,.3,1.394,3.045,3.045,0,0,1-.318,1.413,2.165,2.165,0,0,1-.9.943,2.584,2.584,0,0,1-1.261.321,2.46,2.46,0,0,1-1.31-.354,2.277,2.277,0,0,1-.876-.969,2.936,2.936,0,0,1-.3-1.3Zm.708.011a2.074,2.074,0,0,0,.508,1.479,1.755,1.755,0,0,0,2.539-.005,2.2,2.2,0,0,0,.5-1.548,2.651,2.651,0,0,0-.211-1.107,1.642,1.642,0,0,0-.626-.734,1.713,1.713,0,0,0-.927-.26,1.758,1.758,0,0,0-1.256.5,2.235,2.235,0,0,0-.528,1.673Zm5.383,2.518V143.33h.687v4.58h2.557v.614Zm4.346,0V143.33h3.755v.614H1491.7v1.59h2.873v.61H1491.7v1.766h3.189v.614Zm6.414,0v-4.58h-1.711v-.614h4.117v.614h-1.719v4.58Zm3.039-2.529a2.822,2.822,0,0,1,.7-2.025,2.36,2.36,0,0,1,1.792-.732,2.5,2.5,0,0,1,1.3.344,2.245,2.245,0,0,1,.881.959,3.114,3.114,0,0,1,.3,1.394,3.063,3.063,0,0,1-.318,1.413,2.176,2.176,0,0,1-.906.943,2.565,2.565,0,0,1-1.261.321,2.452,2.452,0,0,1-1.31-.354,2.281,2.281,0,0,1-.874-.969,2.917,2.917,0,0,1-.3-1.3Zm.708.011a2.087,2.087,0,0,0,.508,1.479,1.761,1.761,0,0,0,2.544-.005,2.206,2.206,0,0,0,.5-1.548,2.657,2.657,0,0,0-.218-1.107,1.645,1.645,0,0,0-.626-.733,1.7,1.7,0,0,0-.927-.261,1.758,1.758,0,0,0-1.256.5,2.236,2.236,0,0,0-.527,1.673Z" transform="translate(-1463.449 -126.473)"/>
  </g>
</svg>
