<svg xmlns="http://www.w3.org/2000/svg" xmlns:xlink="http://www.w3.org/1999/xlink" width="54" height="27.123" viewBox="0 0 54 27.123">
  <defs>
    <clipPath id="clip-path">
      <rect id="Retângulo_99" data-name="Retângulo 99" width="26.728" height="26.728" fill="none"/>
    </clipPath>
  </defs>
  <g id="Grupo_69" data-name="Grupo 69" transform="translate(-0.395 -0.365)">
    <rect id="Retângulo_96" data-name="Retângulo 96" width="54" height="27" rx="2" transform="translate(0.395 0.488)" fill="#fff"/>
    <g id="Grupo_68" data-name="Grupo 68" transform="translate(13.729 0.365)">
      <g id="Grupo_67" data-name="Grupo 67">
        <g id="Grupo_66" data-name="Grupo 66" clip-path="url(#clip-path)">
          <rect id="Retângulo_97" data-name="Retângulo 97" width="26.728" height="26.728" fill="#fff"/>
          <g id="Grupo_65" data-name="Grupo 65">
            <g id="Grupo_64" data-name="Grupo 64" clip-path="url(#clip-path)">
              <path id="Caminho_98" data-name="Caminho 98" d="M1300.412,134.505h2.83a5.075,5.075,0,0,1,2.754.954,4.668,4.668,0,0,1,.03,7.656,5.246,5.246,0,0,1-2.83,1.03h-2.784a5.022,5.022,0,0,1-3.375-1.6,4.961,4.961,0,0,1-1.226-3.216,5.077,5.077,0,0,1,1.361-3.412,4.892,4.892,0,0,1,3.239-1.407" transform="translate(-1288.177 -129.936)" fill="#0078bd"/>
              <path id="Caminho_99" data-name="Caminho 99" d="M1305.024,139.215a4.441,4.441,0,1,0-4.441,4.441,4.442,4.442,0,0,0,4.441-4.441" transform="translate(-1288.059 -129.841)" fill="#fff"/>
              <path id="Caminho_100" data-name="Caminho 100" d="M1299.153,136.125v5.221a2.844,2.844,0,0,1-1.8-2.694,2.815,2.815,0,0,1,1.8-2.526" transform="translate(-1287.63 -129.361)" fill="#0078bd"/>
              <path id="Caminho_101" data-name="Caminho 101" d="M1300.163,136.125v5.221a2.792,2.792,0,0,0,0-5.221" transform="translate(-1286.633 -129.361)" fill="#0078bd"/>
              <path id="Caminho_102" data-name="Caminho 102" d="M1291.644,145.737c.188-.106.135-.386.135-.386v-2.444c-.007-.272-.1-.3-.1-.3-.023-.083-.356-.106-.356-.106v-.121h1.574a1.778,1.778,0,1,1-.023,3.541h-1.551V145.8c.272,0,.318-.061.318-.061m.65-3.155v2.777a.375.375,0,0,0,.378.416s1.627.19,1.6-1.71a1.522,1.522,0,0,0-.886-1.37,1.791,1.791,0,0,0-1.089-.114" transform="translate(-1289.767 -127.141)"/>
              <path id="Caminho_103" data-name="Caminho 103" d="M1294.753,142.592a.242.242,0,1,0-.242.242.242.242,0,0,0,.242-.242" transform="translate(-1288.724 -127.153)"/>
              <path id="Caminho_104" data-name="Caminho 104" d="M1294.116,143.505l.565-.2s.116-.081.111.1v1.9s-.01.176.146.176h.192v.125h-1.085v-.119h.217a.166.166,0,0,0,.122-.182v-1.428a.334.334,0,0,0-.263-.293Z" transform="translate(-1288.802 -126.82)"/>
              <path id="Caminho_105" data-name="Caminho 105" d="M1294.995,143.543v.091s.308.085.287.282v1.407a.148.148,0,0,1-.144.157h-.18v.129h1.08v-.125h-.187s-.156-.009-.156-.15v-1.519a1.277,1.277,0,0,1,.656-.242.416.416,0,0,1,.409.394v1.347s0,.167-.152.171h-.192v.125h1.09v-.129h-.177s-.161.02-.165-.167V144s.03-.661-.5-.7a1.214,1.214,0,0,0-.963.377v-.383s-.641.242-.706.257" transform="translate(-1288.479 -126.822)"/>
              <path id="Caminho_106" data-name="Caminho 106" d="M1297.443,145.111a.686.686,0,0,0,.524.282,1.132,1.132,0,0,0,.7-.348l.07.076c-.474.646-.96.57-.96.57-1.136-.026-.936-1.382-.936-1.382a1.075,1.075,0,0,1,1.039-1.024.826.826,0,0,1,.832.822c.015.111-.106.111-.106.111h-1.378a1.247,1.247,0,0,0,.213.893m-.192-1.054h.883a.144.144,0,0,0,.146-.177.457.457,0,0,0-.465-.423.61.61,0,0,0-.565.6" transform="translate(-1287.815 -126.822)"/>
              <path id="Caminho_107" data-name="Caminho 107" d="M1298.423,143.586v.072s.263.091.263.2v1.489s-.009.135-.131.131h-.252v.129h1.311v-.129h-.373s-.167.015-.146-.2v-1.174a.405.405,0,0,1,.343-.4s.091-.035.222.08a.25.25,0,0,0,.378-.2.262.262,0,0,0-.146-.261.419.419,0,0,0-.454.08,1.472,1.472,0,0,0-.348.409v-.454s0-.129-.122-.042c0,0-.507.253-.544.268" transform="translate(-1287.293 -126.821)"/>
              <path id="Caminho_108" data-name="Caminho 108" d="M1300.994,143.966h.121l-.03-.509a1.085,1.085,0,0,0-.979-.081.683.683,0,0,0-.4.591.621.621,0,0,0,.354.574l.434.207s.368.156.328.448a.37.37,0,0,1-.412.333.654.654,0,0,1-.633-.611l-.106.02.061.591a1.432,1.432,0,0,0,.626.164s.872.038.872-.729a.607.607,0,0,0-.444-.576l-.519-.247a.42.42,0,0,1-.213-.386s.035-.32.444-.3a.516.516,0,0,1,.495.509" transform="translate(-1286.807 -126.821)"/>
              <path id="Caminho_109" data-name="Caminho 109" d="M1304.912,143.337h.131l-.041-.732a2.538,2.538,0,0,0-2.169-.03,1.766,1.766,0,0,0-.969,1.573,1.813,1.813,0,0,0,.863,1.619,2.347,2.347,0,0,0,2.2,0l.111-.746-.111-.03a1.087,1.087,0,0,1-1.013.878,1.442,1.442,0,0,1-1.17-.641,1.866,1.866,0,0,1-.354-1.221,1.585,1.585,0,0,1,.671-1.291,1.394,1.394,0,0,1,.807-.217.983.983,0,0,1,1.039.837" transform="translate(-1286.03 -127.161)"/>
              <path id="Caminho_110" data-name="Caminho 110" d="M1304.414,142.421v.07a.3.3,0,0,1,.272.313v2.93a.146.146,0,0,1-.135.146h-.2v.141h1.084v-.135h-.191s-.157.009-.157-.177v-3.49s.016-.131-.08-.056c0,0-.354.171-.591.257" transform="translate(-1285.148 -127.228)"/>
              <path id="Caminho_111" data-name="Caminho 111" d="M1305.149,143.384l.611-.035s.12-.039.1.106v1.413s-.055.53.434.535c0,0,.222.015.631-.318v-1.376s-.041-.117-.433-.192v-.085l.721-.066s.117-.065.117.076v1.852s-.035.121.121.111h.217v.106a7.323,7.323,0,0,0-.741.164l-.015-.028v-.383s-.54.474-.928.412a.543.543,0,0,1-.53-.593v-1.387s-.011-.206-.3-.206Z" transform="translate(-1284.865 -126.801)"/>
              <path id="Caminho_112" data-name="Caminho 112" d="M1307.305,146.046l-.111-.061a5.456,5.456,0,0,0,.081-.843v-2.371a.29.29,0,0,0-.268-.267v-.11a3.091,3.091,0,0,0,.576-.233s.091-.081.095.08v1.811s.62-.615,1.226-.226a1.069,1.069,0,0,1,.474.923,1.324,1.324,0,0,1-1.21,1.349,1.388,1.388,0,0,1-.711-.184Zm.368-1.826v1.2s.032.53.519.541c0,0,.719.083.778-.979,0,0-.016-.9-.8-1,0,0-.213-.045-.494.242" transform="translate(-1284.206 -127.227)"/>
              <path id="Caminho_113" data-name="Caminho 113" d="M1291.31,145.817h.862v.1h-.111a.137.137,0,0,0-.126.137v1.463a.118.118,0,0,0,.117.141h.121v.111h-.862v-.106h.121a.136.136,0,0,0,.12-.142v-1.478s-.024-.126-.126-.115h-.115Z" transform="translate(-1289.772 -125.924)"/>
              <path id="Caminho_114" data-name="Caminho 114" d="M1302.3,145.817h.863v.1h-.111a.137.137,0,0,0-.126.137v1.463a.118.118,0,0,0,.115.141h.122v.111h-.863v-.106h.122a.137.137,0,0,0,.12-.142v-1.478s-.026-.126-.126-.115h-.117Z" transform="translate(-1285.876 -125.924)"/>
              <path id="Caminho_115" data-name="Caminho 115" d="M1292.006,145.817h.574l1.226,1.356v-1.039a.2.2,0,0,0-.161-.2h-.137v-.117h.752v.111h-.1s-.165-.02-.186.232v1.417a.658.658,0,0,0,.015.237h-.132l-1.4-1.558v1.154s-.026.242.152.248h.156v.111h-.761v-.106h.111s.156-.005.182-.253v-1.26a.267.267,0,0,0-.182-.217h-.111Z" transform="translate(-1289.526 -125.924)"/>
              <path id="Caminho_116" data-name="Caminho 116" d="M1297.9,145.817h.576l1.226,1.356v-1.039a.2.2,0,0,0-.163-.2h-.135v-.117h.752v.111h-.1s-.167-.02-.187.232v1.417a.691.691,0,0,0,.015.237h-.131l-1.4-1.558v1.154s-.024.242.152.248h.157v.111h-.763v-.106h.111s.157-.005.181-.253v-1.26a.266.266,0,0,0-.181-.217h-.111Z" transform="translate(-1287.435 -125.924)"/>
              <path id="Caminho_117" data-name="Caminho 117" d="M1304.561,145.817h.574l1.226,1.356v-1.039a.2.2,0,0,0-.161-.2h-.135v-.117h.75v.111h-.095s-.167-.02-.187.232v1.417a.694.694,0,0,0,.015.237h-.131l-1.4-1.558v1.154s-.026.242.152.248h.156v.111h-.761v-.106h.111s.156-.005.182-.253v-1.26a.266.266,0,0,0-.182-.217h-.111Z" transform="translate(-1285.073 -125.924)"/>
              <path id="Caminho_118" data-name="Caminho 118" d="M1293.756,145.757a2.683,2.683,0,0,1-.056.489h.117s-.011-.261.206-.244h.474v1.44s.035.211-.115.242h-.167v.106h.943v-.111h-.126s-.172.005-.152-.242V146h.444s.176-.035.191.267l.107-.039s0-.233.03-.47c0,0-.066.02-.081,0a.121.121,0,0,1-.1.081h-1.528a.121.121,0,0,1-.107-.081Z" transform="translate(-1288.925 -125.945)"/>
              <path id="Caminho_119" data-name="Caminho 119" d="M1300.849,145.757a2.7,2.7,0,0,1-.056.489h.117s-.011-.261.206-.244h.474v1.44s.035.211-.115.242h-.167v.106h.943v-.111h-.126s-.172.005-.152-.242V146h.444s.176-.035.191.267l.107-.039s0-.233.03-.47c0,0-.066.02-.081,0a.121.121,0,0,1-.1.081h-1.528a.121.121,0,0,1-.107-.081Z" transform="translate(-1286.409 -125.945)"/>
              <path id="Caminho_120" data-name="Caminho 120" d="M1295.186,145.817h1.417s.005.278.024.439l-.115.035s.015-.339-.252-.322h-.439v.691h.331s.179.02.194-.233l.1-.009a4.842,4.842,0,0,0,0,.656l-.106.035s.015-.3-.188-.293h-.336v.62a.154.154,0,0,0,.172.182h.328a.368.368,0,0,0,.373-.328l.106.026s-.085.352-.1.454h-1.508v-.111h.126s.121.005.13-.152v-1.443s-.015-.141-.126-.135h-.13Z" transform="translate(-1288.398 -125.924)"/>
              <path id="Caminho_121" data-name="Caminho 121" d="M1296.44,145.817h.948s.62-.03.62.463a.51.51,0,0,1-.387.535l.493.717s.037.121.242.135v.1h-.545l-.565-.893h-.167v.62a.161.161,0,0,0,.111.161h.161v.111h-.913v-.111h.122a.161.161,0,0,0,.131-.141v-1.448s-.026-.135-.127-.135h-.126Zm.631.126v.81h.182a.357.357,0,0,0,.352-.405.378.378,0,0,0-.293-.405Z" transform="translate(-1287.953 -125.924)"/>
              <path id="Caminho_122" data-name="Caminho 122" d="M1308.719,145.862h.156s.1,0,.1.076a.084.084,0,0,1-.064.088l.081.118s.007.02.041.023v.016h-.089l-.094-.146h-.027v.1s0,.022.018.026h.027v.019h-.15v-.019h.02a.025.025,0,0,0,.022-.023V145.9s0-.023-.02-.023h-.022Zm.1.02v.134h.03a.059.059,0,0,0,.058-.066.064.064,0,0,0-.049-.068Z" transform="translate(-1283.598 -125.908)"/>
              <path id="Caminho_123" data-name="Caminho 123" d="M1299.534,147.786v-.1h.066a.26.26,0,0,0,.187-.167l.56-1.623.222-.107a.063.063,0,0,1,.106.046l.606,1.724a.209.209,0,0,0,.211.126v.1h-.822v-.106h.1s.126-.011.111-.111l-.161-.459h-.611l-.135.428a.086.086,0,0,0,.085.131h.131v.116Zm.631-.863h.48l-.24-.732Z" transform="translate(-1286.856 -125.94)"/>
              <path id="Caminho_124" data-name="Caminho 124" d="M1306.2,147.786v-.1h.067a.259.259,0,0,0,.186-.167l.559-1.623.222-.107a.063.063,0,0,1,.106.046l.606,1.724a.208.208,0,0,0,.211.126v.1h-.822v-.106h.1s.126-.011.111-.111l-.161-.459h-.611l-.135.428a.086.086,0,0,0,.085.131h.131v.116Zm.63-.863h.479l-.24-.732Z" transform="translate(-1284.49 -125.94)"/>
              <path id="Caminho_125" data-name="Caminho 125" d="M1304.035,147.824a1.019,1.019,0,1,1,1.059-1.019,1.039,1.039,0,0,1-1.059,1.019m-.642-1.109c.009.983.681.969.681.969.7-.035.595-.92.595-.92-.043-.828-.681-.84-.681-.84-.65.06-.595.791-.595.791" transform="translate(-1285.635 -125.934)"/>
              <path id="Caminho_126" data-name="Caminho 126" d="M1307.7,145.817h.878v.1h-.106s-.161-.015-.146.131v1.417s-.031.142.136.157c0,0,.652.146.722-.343h.106l-.1.489H1307.7v-.1h.1s.121.005.15-.156v-1.437s-.01-.131-.126-.141h-.126Z" transform="translate(-1283.961 -125.924)"/>
              <ellipse id="Elipse_2" data-name="Elipse 2" cx="0.268" cy="0.268" rx="0.268" ry="0.268" transform="matrix(1, -0.002, 0.002, 1, 25.007, 19.847)" fill="none" stroke="#000" stroke-miterlimit="10" stroke-width="0.099"/>
            </g>
          </g>
        </g>
      </g>
    </g>
  </g>
</svg>
