<svg xmlns="http://www.w3.org/2000/svg" width="54" height="27" viewBox="0 0 54 27">
  <g id="Grupo_63" data-name="Grupo 63" transform="translate(-0.186)">
    <rect id="Retângulo_95" data-name="Retângulo 95" width="54" height="27" rx="2" transform="translate(0.186 0)" fill="#fff"/>
    <g id="Grupo_62" data-name="Grupo 62" transform="translate(9.084 6.646)">
      <path id="Caminho_89" data-name="Caminho 89" d="M1432.367,135.768a6.921,6.921,0,0,0-2.189.354l.9,2.7a4.064,4.064,0,0,1,5.267,3.041l2.784-.569A6.9,6.9,0,0,0,1432.367,135.768Z" transform="translate(-1425.464 -135.768)" fill="#231f20"/>
      <path id="Caminho_90" data-name="Caminho 90" d="M1429.54,142.215a4.052,4.052,0,0,1,1.37-3.04l-1.883-2.128a6.9,6.9,0,0,0,0,10.339l1.883-2.128A4.052,4.052,0,0,1,1429.54,142.215Z" transform="translate(-1426.698 -135.314)" fill="#231f20"/>
      <path id="Caminho_91" data-name="Caminho 91" d="M1432.367,144.71a4.006,4.006,0,0,1-1.288-.21l-.9,2.7a6.908,6.908,0,0,0,8.952-5.161l-2.784-.57A4.059,4.059,0,0,1,1432.367,144.71Z" transform="translate(-1425.464 -133.748)" fill="#231f20"/>
      <path id="Caminho_92" data-name="Caminho 92" d="M1444.466,139.074a4.238,4.238,0,0,0-3.893-.283,4.231,4.231,0,0,0-2.112,5.5,5,5,0,0,0,.29.558l7.6-3.311c-.046-.112-.092-.247-.145-.37A4.161,4.161,0,0,0,1444.466,139.074Zm-4.449,3.586a2.1,2.1,0,0,1,1.271-2.226,2.026,2.026,0,0,1,2.549.581Z" transform="translate(-1422.651 -134.819)" fill="#231f20"/>
      <path id="Caminho_93" data-name="Caminho 93" d="M1443.826,142.57l-.078-.054a2.232,2.232,0,0,1-1.032.864,2.009,2.009,0,0,1-2.215-.222l-.053.079h0l-.97,1.451a4.17,4.17,0,0,0,.771.423,4.207,4.207,0,0,0,5.057-1.554l-1.477-.988Z" transform="translate(-1422.166 -133.375)" fill="#231f20"/>
      <path id="Caminho_94" data-name="Caminho 94" d="M1446.621,137.123h-1.791v8.085a1.8,1.8,0,0,0,.267,1,1.568,1.568,0,0,0,.683.573l1.383.576.713-1.662-1.255-.508Z" transform="translate(-1420.268 -135.287)" fill="#231f20"/>
      <path id="Caminho_95" data-name="Caminho 95" d="M1448.55,139.23a4.213,4.213,0,0,0,0,6.31l1.284-1.436a2.287,2.287,0,0,1,.005-3.441Z" transform="translate(-1419.453 -134.54)" fill="#231f20"/>
      <path id="Caminho_96" data-name="Caminho 96" d="M1450.586,143.725a2.333,2.333,0,0,1-.725-.119l-.614,1.827a4.216,4.216,0,0,0,5.468-3.146l-1.887-.386A2.289,2.289,0,0,1,1450.586,143.725Z" transform="translate(-1418.701 -133.593)" fill="#231f20"/>
      <path id="Caminho_97" data-name="Caminho 97" d="M1450.588,140.376a2.287,2.287,0,0,1,2.239,1.833l1.887-.383a4.215,4.215,0,0,0-5.461-3.16l.609,1.827A2.327,2.327,0,0,1,1450.588,140.376Z" transform="translate(-1418.699 -134.817)" fill="#231f20"/>
    </g>
  </g>
</svg>
