<svg xmlns="http://www.w3.org/2000/svg" width="54" height="27" viewBox="0 0 54 27">
  <g id="Grupo_72" data-name="Grupo 72" transform="translate(-0.186 -0.488)">
    <rect id="Retângulo_101" data-name="Retângulo 101" width="54" height="27" rx="2" transform="translate(0.186 0.488)" fill="#fff"/>
    <g id="g2144" transform="translate(10.894 6.456)">
      <g id="g2150" transform="translate(0.144 0.118)">
        <path id="path2152" d="M1407.814,149.684c1.616,0,3.026-.5,3.351-2.1s2.436-11.874,2.436-11.874h-26.332c-1.616,0-3.033.576-3.351,2.093s-2.429,11.874-2.429,11.874Z" transform="translate(-1381.489 -135.715)" fill="#b1131b"/>
      </g>
      <g id="g2154">
        <path id="path2156" d="M1407.852,149.83V149.6c1.6-.007,2.927-.48,3.238-2,.3-1.489,2.152-10.5,2.407-11.735h-26.19c-1.6.005-2.934.559-3.238,2-.16.759-.767,3.727-1.334,6.505-.489,2.4-.949,4.655-1.066,5.228l26.183,0v.232l-26.468,0,.03-.14s2.109-10.355,2.429-11.874c.334-1.593,1.829-2.192,3.465-2.186h26.474l-.028.141c0,.005-.527,2.568-1.1,5.337s-1.177,5.738-1.34,6.536c-.336,1.664-1.817,2.189-3.434,2.189h-.031" transform="translate(-1381.383 -135.628)" fill="#fff"/>
      </g>
      <g id="g2158" transform="translate(2.967 4.37)">
        <path id="path2160" d="M1383.587,143.522l.219-1.116.222-1.179.189-1.187.178-1.115.016-.072h.789a.623.623,0,0,1-.015.072c-.029.134-.085.434-.164.894-.042.249-.1.532-.163.853l-.015.1h.065l1.028.012,1-.012h.078l.014-.1c.043-.278.085-.569.142-.882.115-.624.122-.668.157-.937h.8a.6.6,0,0,1-.022.072c-.013.07-.084.44-.206,1.115l-.219,1.187-.2,1.179c-.113.669-.171,1.038-.183,1.116a.264.264,0,0,1-.008.07h-.8l.015-.07c.02-.085.055-.291.112-.618.022-.123.064-.328.121-.641l.114-.624c.037-.192.057-.306.064-.335a.661.661,0,0,1,.015-.07h-.092c-.134-.007-.618-.007-1.08-.007s-.768,0-.91.005h-.092c-.013.137-.02.164-.063.406-.035.184-.071.4-.106.624-.057.335-.094.547-.107.639-.057.341-.094.546-.107.619a.3.3,0,0,1-.007.069h-.8Z" transform="translate(-1383.573 -138.854)" fill="#fff"/>
      </g>
      <g id="g2162" transform="translate(7.385 4.308)">
        <path id="path2164" d="M1386.855,143.541l.149-.761.164-.855.135-.828c.068-.423.108-.687.122-.8a.319.319,0,0,1,.007-.068h.7a.386.386,0,0,1-.019.068c-.027.108-.074.373-.157.8l-.156.828-.142.855c-.062.4-.1.658-.118.761a.453.453,0,0,1,0,.068h-.7Zm.714-4.183c0-.345.169-.55.469-.55.2,0,.3.095.3.293,0,.339-.177.55-.469.55-.169,0-.272-.069-.3-.2a.562.562,0,0,1-.005-.095" transform="translate(-1386.835 -138.808)" fill="#fff"/>
      </g>
      <g id="g2166" transform="translate(8.438 5.66)">
        <path id="path2168" d="M1387.632,144.687c.034-.149.115-.569.244-1.275l.224-1.216.2-1.168c.095-.57.15-.931.171-1.08a.344.344,0,0,1,.005-.068h.605l-.015.068-.032.188-.014.076a1.557,1.557,0,0,1,1.107-.406,1.056,1.056,0,0,1,1.168,1.188,3.3,3.3,0,0,1-.313,1.338,1.629,1.629,0,0,1-1.562,1.012.744.744,0,0,1-.814-.475l-.014.08-.157,1.005c-.054.34-.1.584-.108.727a.742.742,0,0,1-.005.081h-.707l.02-.076m1.357-3.979-.224,1.263a1.527,1.527,0,0,0-.027.26.586.586,0,0,0,.665.658.907.907,0,0,0,.706-.3,2.511,2.511,0,0,0,.469-1.514c0-.55-.244-.822-.774-.822a1.04,1.04,0,0,0-.8.354Z" transform="translate(-1387.612 -139.806)" fill="#fff"/>
      </g>
      <g id="g2170" transform="translate(12.3 5.66)">
        <path id="path2172" d="M1391.828,143.329c-.914,0-1.365-.393-1.365-1.208a3.347,3.347,0,0,1,.314-1.371,1.676,1.676,0,0,1,1.677-.944c.78,0,1.169.3,1.169.889a3.873,3.873,0,0,1-.11.74l-.074-.007c-.122-.005-.5-.005-1.142-.005-.543,0-.875,0-1,.005l-.069.007a2.358,2.358,0,0,0-.067.6c0,.543.312.836.9.836a2.809,2.809,0,0,0,1.156-.252l-.1.543a5.006,5.006,0,0,1-1.277.169m-.44-2.288c.075.007.326.007.748.007h.108c.3,0,.516,0,.637-.007h.062l.014-.089a1.352,1.352,0,0,0,.02-.222c0-.333-.225-.5-.66-.5a.928.928,0,0,0-1.005.807Z" transform="translate(-1390.463 -139.806)" fill="#fff"/>
      </g>
      <g id="g2174" transform="translate(15.547 5.658)">
        <path id="path2176" d="M1392.874,143.188l.15-.761.163-.855.136-.828c.068-.423.108-.687.122-.8,0-.014.007-.034.007-.068h.611l-.013.068-.08.428-.022.095a2.216,2.216,0,0,1,.244-.333.94.94,0,0,1,.707-.333.844.844,0,0,1,.381.089l-.088.489a1.276,1.276,0,0,0-.4-.068c-.406,0-.767.367-.91.929-.053.211-.1.455-.148.741a12.019,12.019,0,0,0-.178,1.269h-.693Z" transform="translate(-1392.86 -139.805)" fill="#fff"/>
      </g>
      <g id="g2178" transform="translate(17.589 5.658)">
        <path id="path2180" d="M1397.186,140.411a2.653,2.653,0,0,0-.87-.157,1.048,1.048,0,0,0-.753.245,2.353,2.353,0,0,0-.5,1.514c0,.577.252.856.768.856a2.4,2.4,0,0,0,.97-.232l-.1.515a3.392,3.392,0,0,1-1.085.177,1.135,1.135,0,0,1-1.047-.428,1.289,1.289,0,0,1-.21-.8,3.1,3.1,0,0,1,.333-1.386,1.642,1.642,0,0,1,.4-.523,1.78,1.78,0,0,1,1.3-.387c.218,0,.448.015.816.047l.068.007Z" transform="translate(-1394.367 -139.805)" fill="#fff"/>
      </g>
      <g id="g2182" transform="translate(20.415 5.66)">
        <path id="path2184" d="M1397.465,143.329c-.687,0-1.012-.286-1.012-.882,0-.883.625-1.393,1.7-1.393.169,0,.5.014.726.027l.015-.075a1.436,1.436,0,0,0,.047-.347c0-.271-.225-.408-.687-.408a4.126,4.126,0,0,0-1.134.177l.137-.558a.184.184,0,0,0,.06.008,4.815,4.815,0,0,0,.516-.042c.2-.019.408-.033.6-.033.809,0,1.169.21,1.169.679a3.256,3.256,0,0,1-.075.557l-.11.618a9.656,9.656,0,0,0-.188,1.487.811.811,0,0,0,.005.108h-.611V143.2c0-.1.027-.306.054-.5a1.319,1.319,0,0,1-1.215.633m1.276-1.86a3.8,3.8,0,0,0-.448-.02,1.283,1.283,0,0,0-.848.2.876.876,0,0,0-.327.7c0,.341.2.523.576.523a.959.959,0,0,0,.871-.535,3.467,3.467,0,0,0,.244-.864Z" transform="translate(-1396.453 -139.806)" fill="#fff"/>
      </g>
      <g id="g2186" transform="translate(23.769 5.658)">
        <path id="path2188" d="M1398.943,143.188l.149-.761.164-.855.137-.828c.066-.423.107-.687.12-.8,0-.014.007-.034.007-.068h.612l-.016.068-.08.428-.02.095a2.225,2.225,0,0,1,.244-.333.937.937,0,0,1,.707-.333.852.852,0,0,1,.381.089l-.089.489a1.269,1.269,0,0,0-.4-.068c-.406,0-.767.367-.909.929-.054.211-.1.455-.149.741-.135.848-.15.916-.178,1.269h-.692Z" transform="translate(-1398.929 -139.805)" fill="#fff"/>
      </g>
      <g id="g2190" transform="translate(25.81 4.279)">
        <path id="path2192" d="M1401.6,143.691a1.016,1.016,0,0,1-1.168-1.161,3.041,3.041,0,0,1,.333-1.372,1.717,1.717,0,0,1,1.635-.99,2.557,2.557,0,0,1,.592.061c.054.019.089.027.191.061l.012-.083c.028-.135.062-.352.109-.652.054-.325.089-.564.11-.714l.007-.054h.692l-.014.049c-.054.272-.134.679-.237,1.235-.184.993-.252,1.365-.354,1.983a10.521,10.521,0,0,0-.176,1.513v.049h-.633a2.337,2.337,0,0,1,.028-.284c.02-.11.027-.149.041-.266a1.157,1.157,0,0,1-1.169.625m.836-3.082a1.051,1.051,0,0,0-.719.237,2.252,2.252,0,0,0-.57,1.609c0,.536.217.78.691.78a.929.929,0,0,0,.836-.516,2.875,2.875,0,0,0,.171-.542c.081-.415.191-1.007.251-1.367l.008-.073a1.851,1.851,0,0,0-.667-.129" transform="translate(-1400.436 -138.787)" fill="#fff"/>
      </g>
    </g>
  </g>
</svg>
