<svg xmlns="http://www.w3.org/2000/svg" width="54" height="27" viewBox="0 0 54 27">
  <g id="Grupo_60" data-name="Grupo 60" transform="translate(-0.395)">
    <rect id="Retângulo_91" data-name="Retângulo 91" width="54" height="27" rx="2" transform="translate(0.395 0)" fill="#fff"/>
    <g id="Grupo_59" data-name="Grupo 59" transform="translate(8.257 1.089)" opacity="0">
      <rect id="Retângulo_92" data-name="Retângulo 92" width="37.671" height="24.916" fill="#fff"/>
    </g>
    <rect id="Retângulo_93" data-name="Retângulo 93" width="8.357" height="13.65" transform="translate(22.915 6.721)" fill="#ff5f00"/>
    <path id="Caminho_86" data-name="Caminho 86" d="M1207.1,143.133a8.66,8.66,0,0,1,3.315-6.823,8.681,8.681,0,1,0,0,13.651A8.665,8.665,0,0,1,1207.1,143.133Z" transform="translate(-1183.323 -129.588)" fill="#e9001b"/>
    <path id="Caminho_87" data-name="Caminho 87" d="M1220.785,143.136a8.682,8.682,0,0,1-14.046,6.825,8.681,8.681,0,0,0,0-13.651,8.682,8.682,0,0,1,14.046,6.823Z" transform="translate(-1179.646 -129.588)" fill="#f59c1b"/>
  </g>
</svg>
