<svg id="Grupo_76" data-name="Grupo 76" xmlns="http://www.w3.org/2000/svg" width="54" height="27" viewBox="0 0 54 27">
  <g id="Grupo_73" data-name="Grupo 73" transform="translate(0 0)">
    <rect id="Retângulo_102" data-name="Retângulo 102" width="54" height="27" rx="2" transform="translate(0 0)" fill="#fff"/>
  </g>
  <g id="Grupo_75" data-name="Grupo 75" transform="translate(14.578 4.923)">
    <path id="Caminho_127" data-name="Caminho 127" d="M1595.736,142.681c0-4.51-5.6-8.185-12.516-8.185s-12.514,3.675-12.514,8.185c0,.117,0,.439,0,.48,0,4.785,4.9,8.659,12.514,8.659,7.663,0,12.517-3.874,12.517-8.658Z" transform="translate(-1570.705 -134.496)" fill="#000f9f"/>
    <path id="Caminho_128" data-name="Caminho 128" d="M1595.13,142.55c0,4.252-5.387,7.7-12.033,7.7s-12.033-3.446-12.033-7.7,5.388-7.7,12.033-7.7S1595.13,138.3,1595.13,142.55Z" transform="translate(-1570.578 -134.37)" fill="#00adee"/>
    <g id="Grupo_74" data-name="Grupo 74" transform="translate(0.574 2.967)">
      <path id="Caminho_129" data-name="Caminho 129" d="M1577.016,139.472c-.007.011-.126.135-.049.236a1.505,1.505,0,0,0,1.371.248,3.965,3.965,0,0,0,1.244-.787,5,5,0,0,1,1.421-.906,1.633,1.633,0,0,1,1.035-.027,3.189,3.189,0,0,1,.944.551c.824.619,4.134,3.509,4.707,4.008a28.645,28.645,0,0,1,5.29-1.7,6.548,6.548,0,0,0-2.513-3.952,7.726,7.726,0,0,1-6.517.106,6.322,6.322,0,0,0-2.461-.559,4.416,4.416,0,0,0-3.422,1.653Z" transform="translate(-1569.068 -136.686)" fill="#fff"/>
      <path id="Caminho_130" data-name="Caminho 130" d="M1589.615,143.057c-.038-.034-3.892-3.407-4.766-4.063a2.134,2.134,0,0,0-1.081-.513,1.468,1.468,0,0,0-.515.049,4.663,4.663,0,0,0-1.409.84,4.025,4.025,0,0,1-1.375.851,2.23,2.23,0,0,1-1.517-.228.659.659,0,0,1-.25-.276.464.464,0,0,1,.129-.5l1.063-1.151c.123-.123.248-.247.375-.368a6.8,6.8,0,0,0-.969.219,4.191,4.191,0,0,1-1.131.21,10.745,10.745,0,0,1-1.156-.18,17.189,17.189,0,0,1-3.068-1.109,6.807,6.807,0,0,0-2.816,4.083c.218.058.567.163.715.2,3.422.761,4.487,1.544,4.68,1.708a1.132,1.132,0,0,1,1.776.1,1.3,1.3,0,0,1,.816-.287,1.514,1.514,0,0,1,.489.087,1.124,1.124,0,0,1,.69.622,1.147,1.147,0,0,1,.475-.1,1.425,1.425,0,0,1,.569.126,1.215,1.215,0,0,1,.672,1.357,1.143,1.143,0,0,1,.137-.007,1.354,1.354,0,0,1,1.194,2,2.151,2.151,0,0,0,1.177.316.762.762,0,0,0,.553-.24c.034-.049.069-.1.035-.145l-.965-1.073s-.16-.15-.107-.209.153.027.222.084c.492.41,1.092,1.03,1.092,1.03s.05.085.271.126a1.008,1.008,0,0,0,.764-.179,1.167,1.167,0,0,0,.167-.171l-.011.008a.512.512,0,0,0-.027-.635l-1.127-1.267s-.161-.149-.105-.209.152.027.222.085c.358.3.862.8,1.345,1.277a.919.919,0,0,0,1.081-.037.779.779,0,0,0,.4-.707.807.807,0,0,0-.239-.47l-1.54-1.548s-.163-.138-.1-.209.152.026.221.084c.49.41,1.819,1.627,1.819,1.627a.934.934,0,0,0,1.044-.02.7.7,0,0,0,.343-.551A.819.819,0,0,0,1589.615,143.057Z" transform="translate(-1571.129 -136.634)" fill="#fff"/>
      <path id="Caminho_131" data-name="Caminho 131" d="M1580.732,143.474a3.588,3.588,0,0,0-.534.118c-.019-.012.015-.108.038-.163s.337-1-.429-1.33a.9.9,0,0,0-1.069.16c-.032.033-.046.03-.05-.012a.846.846,0,0,0-.595-.786,1.158,1.158,0,0,0-1.306.466.838.838,0,1,0-.829.946.827.827,0,0,0,.58-.234c.006,0,.007.012,0,.028a1.1,1.1,0,0,0,.691,1.269.822.822,0,0,0,.81-.125c.066-.047.077-.027.068.035a.789.789,0,0,0,.589.847.748.748,0,0,0,.878-.164c.074-.068.095-.057.1.049a1.056,1.056,0,1,0,1.055-1.1Z" transform="translate(-1569.714 -135.088)" fill="#fff"/>
    </g>
    <path id="Caminho_132" data-name="Caminho 132" d="M1589.782,142.811c-1.187-1.036-3.931-3.422-4.674-3.979a3.266,3.266,0,0,0-.969-.564,1.571,1.571,0,0,0-.476-.074,2,2,0,0,0-.6.1,4.912,4.912,0,0,0-1.421.9l-.024.018a3.932,3.932,0,0,1-1.214.773,2.088,2.088,0,0,1-.449.05,1.156,1.156,0,0,1-.844-.272c-.021-.027-.007-.07.042-.133l.007-.008,1.044-1.126a4.341,4.341,0,0,1,3.369-1.631h.09a6.253,6.253,0,0,1,2.337.554,7.27,7.27,0,0,0,3.188.764,8.326,8.326,0,0,0,3.5-.839c-.135-.114-.278-.225-.423-.335a7.715,7.715,0,0,1-3.073.7,6.8,6.8,0,0,1-2.981-.717,6.674,6.674,0,0,0-2.545-.6h-.1a4.422,4.422,0,0,0-2.9,1.031,5.768,5.768,0,0,0-1.448.264,3.931,3.931,0,0,1-1.02.2c-.13,0-.366-.012-.387-.012a19.868,19.868,0,0,1-3.668-1.016q-.223.159-.432.325a18.1,18.1,0,0,0,3.976,1.15c.164.011.337.028.512.03a4.361,4.361,0,0,0,1.15-.214c.222-.062.468-.13.723-.179l-.206.2-1.061,1.147a.535.535,0,0,0-.145.587.744.744,0,0,0,.279.309,2.2,2.2,0,0,0,1.125.286,1.979,1.979,0,0,0,.45-.046,4.081,4.081,0,0,0,1.406-.864,4.647,4.647,0,0,1,1.382-.828,1.575,1.575,0,0,1,.385-.053.766.766,0,0,1,.1.005,2.085,2.085,0,0,1,1.046.5c.871.654,4.725,4.026,4.763,4.059a.744.744,0,0,1,.232.568.616.616,0,0,1-.308.492.94.94,0,0,1-.506.157.838.838,0,0,1-.447-.129c-.013-.012-1.334-1.223-1.821-1.63a.407.407,0,0,0-.228-.122.131.131,0,0,0-.1.047c-.076.095.01.225.11.31l1.543,1.551a.732.732,0,0,1,.214.419.706.706,0,0,1-.367.639,1,1,0,0,1-.546.18.777.777,0,0,1-.44-.134l-.222-.217c-.4-.4-.821-.81-1.127-1.065a.409.409,0,0,0-.23-.119.132.132,0,0,0-.1.041c-.034.039-.058.108.028.224a.686.686,0,0,0,.077.088l1.126,1.264a.43.43,0,0,1,.026.539l-.04.051a1.377,1.377,0,0,1-.1.1.905.905,0,0,1-.551.175.876.876,0,0,1-.152-.014.376.376,0,0,1-.222-.093l-.013-.014c-.061-.064-.629-.643-1.1-1.035a.379.379,0,0,0-.218-.118.136.136,0,0,0-.1.046c-.093.1.046.253.106.309l.96,1.059a.237.237,0,0,1-.036.065c-.035.047-.152.164-.5.207a.973.973,0,0,1-.127.008,2.194,2.194,0,0,1-.939-.279,1.434,1.434,0,0,0-1.295-2.043h-.053a1.271,1.271,0,0,0-.726-1.345,1.513,1.513,0,0,0-.6-.131.809.809,0,0,1-1.141-.516,1.585,1.585,0,0,0-.513-.091,1.353,1.353,0,0,0-.8.257,1.207,1.207,0,0,0-1.8-.1c-.3-.229-1.485-.981-4.657-1.7-.155-.035-.507-.137-.722-.2a4.756,4.756,0,0,0-.081.52l.7.167c3.242.719,4.312,1.468,4.493,1.609a1.2,1.2,0,0,0-.094.466,1.216,1.216,0,0,0,1.437,1.2,1.416,1.416,0,0,0,.916,1.058,1.2,1.2,0,0,0,.432.084,1.129,1.129,0,0,0,.278-.035,1.4,1.4,0,0,0,1.23.8,1.082,1.082,0,0,0,.371-.065,1.432,1.432,0,0,0,2.35.454,2.724,2.724,0,0,0,1.212.362,1.633,1.633,0,0,0,.184-.012,1.109,1.109,0,0,0,.821-.4.638.638,0,0,0,.051-.083,1.354,1.354,0,0,0,.389.061,1.3,1.3,0,0,0,.783-.28,1.075,1.075,0,0,0,.462-.672v-.009a1.321,1.321,0,0,0,.263.027,1.459,1.459,0,0,0,.8-.256,1.161,1.161,0,0,0,.578-1.035,1.249,1.249,0,0,0,.266.028,1.387,1.387,0,0,0,.753-.233,1.1,1.1,0,0,0,.524-.853,1.134,1.134,0,0,0-.167-.688,31.219,31.219,0,0,1,5-1.566,5.073,5.073,0,0,0-.07-.519A28.792,28.792,0,0,0,1589.782,142.811Zm-7.617,4.4a.974.974,0,0,1-.978-.936c0-.045-.005-.164-.107-.164a.185.185,0,0,0-.119.062.692.692,0,0,1-.481.217.867.867,0,0,1-.317-.068c-.558-.226-.566-.611-.543-.765a.141.141,0,0,0-.02-.117l-.034-.031h-.035a.166.166,0,0,0-.1.039.813.813,0,0,1-.474.168.71.71,0,0,1-.264-.051,1.027,1.027,0,0,1-.642-1.189.1.1,0,0,0-.032-.1l-.052-.043-.049.046a.764.764,0,1,1,.226-.646l.027.2.112-.173a1.058,1.058,0,0,1,1.221-.433.771.771,0,0,1,.541.718c.008.1.078.106.092.106a.133.133,0,0,0,.089-.046.77.77,0,0,1,.562-.238,1.107,1.107,0,0,1,.421.095c.718.309.393,1.223.389,1.231-.062.152-.065.219-.007.257l.029.014h.02a.479.479,0,0,0,.14-.037,1.249,1.249,0,0,1,.385-.084h0a.981.981,0,1,1,0,1.962Z" transform="translate(-1570.573 -133.824)" fill="#000f9f"/>
  </g>
</svg>
