<svg xmlns="http://www.w3.org/2000/svg" width="54" height="27" viewBox="0 0 54 27">
  <g id="Grupo_77" data-name="Grupo 77" transform="translate(0 0.279)">
    <rect id="Retângulo_103" data-name="Retângulo 103" width="54" height="27" rx="2" transform="translate(0 -0.279)" fill="#fff"/>
    <g id="g966" transform="translate(7.689 6.648)">
      <g id="g972" transform="translate(16.018 2.334)">
        <path id="path974" d="M1344.191,148.042v-7.913a2.636,2.636,0,0,1,2.636-2.636l2.335,0a2.634,2.634,0,0,1,2.628,2.632v1.685a2.637,2.637,0,0,1-2.636,2.636h-3.3" transform="translate(-1344.191 -137.493)" fill="none" stroke="#101820" stroke-linecap="round" stroke-linejoin="round" stroke-width="0.36"/>
      </g>
      <g id="g976" transform="translate(24.27 2.333)">
        <path id="path978" d="M1350.283,137.492h1.013a1.082,1.082,0,0,1,1.081,1.082v5.91" transform="translate(-1350.283 -137.492)" fill="none" stroke="#101820" stroke-linecap="round" stroke-linejoin="round" stroke-width="0.36"/>
      </g>
      <g id="g980" transform="translate(25.602)">
        <path id="path982" d="M1351.812,137.187l-.459-.459a.291.291,0,0,1,0-.413l.459-.459a.293.293,0,0,1,.413,0l.459.459a.293.293,0,0,1,0,.413l-.459.459a.293.293,0,0,1-.413,0" transform="translate(-1351.266 -135.77)" fill="#101820"/>
      </g>
      <g id="g984" transform="translate(28.31 2.327)">
        <path id="path986" d="M1353.265,137.488h1a1.951,1.951,0,0,1,1.379.572l2.35,2.35a.779.779,0,0,0,1.1,0l2.342-2.342a1.949,1.949,0,0,1,1.379-.57h.817" transform="translate(-1353.265 -137.488)" fill="none" stroke="#101820" stroke-linecap="round" stroke-linejoin="round" stroke-width="0.36"/>
      </g>
      <g id="g988" transform="translate(28.31 6.123)">
        <path id="path990" d="M1353.265,143.441h1a1.951,1.951,0,0,0,1.379-.572l2.35-2.35a.779.779,0,0,1,1.1,0l2.342,2.342a1.949,1.949,0,0,0,1.379.57h.817" transform="translate(-1353.265 -140.29)" fill="none" stroke="#101820" stroke-linecap="round" stroke-linejoin="round" stroke-width="0.36"/>
      </g>
      <g id="g992" transform="translate(2.604 8.192)">
        <path id="path994" d="M1341.711,144.4a1.877,1.877,0,0,1-1.336-.553l-1.928-1.928a.367.367,0,0,0-.508,0l-1.935,1.934a1.881,1.881,0,0,1-1.336.553h-.381l2.442,2.442a1.953,1.953,0,0,0,2.762,0l2.449-2.449Z" transform="translate(-1334.289 -141.818)" fill="#101820"/>
      </g>
      <g id="g996" transform="translate(2.604 0.94)">
        <path id="path998" d="M1334.67,139.478a1.881,1.881,0,0,1,1.336.553l1.935,1.936a.359.359,0,0,0,.508,0l1.928-1.928a1.872,1.872,0,0,1,1.336-.554h.232l-2.449-2.449a1.953,1.953,0,0,0-2.762,0l-2.442,2.442Z" transform="translate(-1334.289 -136.464)" fill="#101820"/>
      </g>
      <g id="g1000" transform="translate(0 4.502)">
        <path id="path1002" d="M1344.651,140.579l-1.481-1.481a.272.272,0,0,1-.1.022h-.673a1.329,1.329,0,0,0-.935.387l-1.928,1.928a.927.927,0,0,1-1.31,0l-1.934-1.936a1.334,1.334,0,0,0-.935-.386h-.828a.269.269,0,0,1-.1-.02l-1.486,1.486a1.953,1.953,0,0,0,0,2.762l1.486,1.486a.269.269,0,0,1,.1-.02h.828a1.33,1.33,0,0,0,.935-.387l1.934-1.934a.948.948,0,0,1,1.31,0l1.928,1.928a1.33,1.33,0,0,0,.935.387h.673a.3.3,0,0,1,.1.02l1.481-1.479a1.953,1.953,0,0,0,0-2.762" transform="translate(-1332.367 -139.093)" fill="#101820"/>
      </g>
      <g id="g1004" transform="translate(17.582 12.132)">
        <path id="path1006" d="M1345.79,144.8a1.741,1.741,0,0,0-.362.056v.482a.815.815,0,0,0,.282.047c.241,0,.356-.081.356-.3s-.094-.29-.276-.29m-.444.9v-.954h.066l.008.042a1.914,1.914,0,0,1,.376-.061.377.377,0,0,1,.248.072.365.365,0,0,1,.108.3.331.331,0,0,1-.155.308.591.591,0,0,1-.28.062.973.973,0,0,1-.29-.045v.28Z" transform="translate(-1345.346 -144.726)" fill="#101820"/>
      </g>
      <g id="g1008" transform="translate(18.56 12.132)">
        <path id="path1010" d="M1346.5,144.8c-.241,0-.35.076-.35.289s.107.3.35.3.348-.074.348-.287-.106-.3-.348-.3m.312.588a.688.688,0,0,1-.623,0,.335.335,0,0,1-.125-.293.342.342,0,0,1,.125-.3.688.688,0,0,1,.623,0,.409.409,0,0,1,0,.588" transform="translate(-1346.068 -144.726)" fill="#101820"/>
      </g>
      <g id="g1012" transform="translate(19.552 12.151)">
        <path id="path1014" d="M1347.7,145.439l-.27-.58h-.005l-.265.58h-.073l-.287-.7h.089l.24.587h.005l.259-.587h.076l.266.587h.007l.233-.587h.087l-.287.7Z" transform="translate(-1346.8 -144.74)" fill="#101820"/>
      </g>
      <g id="g1016" transform="translate(20.932 12.132)">
        <path id="path1018" d="M1348.221,144.8c-.223,0-.3.1-.314.244h.627c-.007-.16-.088-.244-.313-.244m0,.664a.419.419,0,0,1-.29-.077.359.359,0,0,1-.11-.29.366.366,0,0,1,.13-.3.466.466,0,0,1,.272-.07.488.488,0,0,1,.279.068.357.357,0,0,1,.121.322h-.717c0,.144.05.271.321.271a2.109,2.109,0,0,0,.36-.041v.073a2.031,2.031,0,0,1-.367.043" transform="translate(-1347.819 -144.726)" fill="#101820"/>
      </g>
      <g id="g1020" transform="translate(21.969 12.132)">
        <path id="path1022" d="M1348.584,145.444v-.7h.065l.008.042a1.208,1.208,0,0,1,.347-.061h.009v.077h-.019a1.121,1.121,0,0,0-.329.056v.585Z" transform="translate(-1348.584 -144.726)" fill="#101820"/>
      </g>
      <g id="g1024" transform="translate(22.469 12.132)">
        <path id="path1026" d="M1349.355,144.8c-.224,0-.3.1-.313.244h.627c-.007-.16-.088-.244-.314-.244m0,.664a.419.419,0,0,1-.29-.077.423.423,0,0,1,.02-.589.469.469,0,0,1,.272-.07.486.486,0,0,1,.279.068.354.354,0,0,1,.121.322h-.715c0,.144.049.271.32.271a2.141,2.141,0,0,0,.362-.041v.073a2.062,2.062,0,0,1-.368.043" transform="translate(-1348.953 -144.726)" fill="#101820"/>
      </g>
      <g id="g1028" transform="translate(23.439 11.857)">
        <path id="path1030" d="M1350.394,144.92a.816.816,0,0,0-.282-.047c-.241,0-.356.081-.356.3s.095.29.276.29a1.816,1.816,0,0,0,.362-.054Zm.016.6-.007-.042a1.947,1.947,0,0,1-.378.061.365.365,0,0,1-.247-.072.361.361,0,0,1-.11-.3.331.331,0,0,1,.154-.306.579.579,0,0,1,.282-.064,1.016,1.016,0,0,1,.289.045v-.32h.083v.993Z" transform="translate(-1349.669 -144.523)" fill="#101820"/>
      </g>
      <g id="g1032" transform="translate(24.998 11.857)">
        <path id="path1034" d="M1351.263,144.875a1.753,1.753,0,0,0-.362.056v.481a.8.8,0,0,0,.282.049c.242,0,.356-.081.356-.3s-.093-.29-.276-.29m.209.6a.588.588,0,0,1-.28.062.97.97,0,0,1-.312-.053l0,.034h-.056v-.993h.081v.333a2.019,2.019,0,0,1,.368-.058.374.374,0,0,1,.248.072.365.365,0,0,1,.108.3.331.331,0,0,1-.154.308" transform="translate(-1350.82 -144.523)" fill="#101820"/>
      </g>
      <g id="g1036" transform="translate(25.896 12.151)">
        <path id="path1038" d="M1351.5,145.706v-.076c.041,0,.079.008.1.008a.212.212,0,0,0,.218-.145l.026-.054-.364-.7h.095l.312.6h.005l.3-.6h.094l-.393.784a.285.285,0,0,1-.291.19.668.668,0,0,1-.1-.008" transform="translate(-1351.483 -144.74)" fill="#101820"/>
      </g>
      <g id="g1040" transform="translate(27.339 11.903)">
        <path id="path1042" d="M1353.03,145.106h-.271v.244h.272c.187,0,.257-.02.257-.122s-.1-.122-.259-.122m-.049-.4h-.222v.249h.224c.183,0,.256-.023.256-.126s-.092-.123-.257-.123m.42.729a.8.8,0,0,1-.44.066h-.413v-.947h.4a.767.767,0,0,1,.4.061.2.2,0,0,1,.1.187.2.2,0,0,1-.149.21v.005c.122.028.2.091.2.225a.2.2,0,0,1-.1.192" transform="translate(-1352.548 -144.557)" fill="#101820"/>
      </g>
      <g id="g1044" transform="translate(28.487 12.132)">
        <path id="path1046" d="M1354.027,145.15c-.081-.007-.164-.011-.251-.011-.142,0-.192.03-.192.093s.042.095.15.095a1.376,1.376,0,0,0,.293-.042Zm.042.294-.005-.042a1.732,1.732,0,0,1-.379.061.359.359,0,0,1-.211-.051.2.2,0,0,1-.077-.168.2.2,0,0,1,.118-.19.628.628,0,0,1,.261-.038c.073,0,.171,0,.252.009v-.012c0-.108-.072-.145-.268-.145-.076,0-.168,0-.256.012v-.141c.1-.008.209-.014.3-.014a.589.589,0,0,1,.325.065.258.258,0,0,1,.095.24v.413Z" transform="translate(-1353.396 -144.726)" fill="#101820"/>
      </g>
      <g id="g1048" transform="translate(29.564 12.132)">
        <path id="path1050" d="M1354.852,145.444v-.386c0-.127-.065-.173-.181-.173a1.347,1.347,0,0,0-.285.045v.515h-.195v-.7h.16l.007.045a1.628,1.628,0,0,1,.373-.064.345.345,0,0,1,.24.072.275.275,0,0,1,.076.218v.428Z" transform="translate(-1354.191 -144.726)" fill="#101820"/>
      </g>
      <g id="g1052" transform="translate(30.599 12.132)">
        <path id="path1054" d="M1355.325,145.463a.4.4,0,0,1-.26-.073.362.362,0,0,1-.11-.3.338.338,0,0,1,.142-.3.548.548,0,0,1,.306-.069c.08,0,.158.005.247.014v.149c-.071-.007-.156-.012-.224-.012-.184,0-.272.058-.272.219s.065.215.218.215a1.692,1.692,0,0,0,.293-.037v.144a1.7,1.7,0,0,1-.34.045" transform="translate(-1354.955 -144.726)" fill="#101820"/>
      </g>
      <g id="g1056" transform="translate(31.417 12.132)">
        <path id="path1058" d="M1356.026,144.872c-.186,0-.267.058-.267.217s.08.228.267.228.264-.057.264-.215-.079-.229-.264-.229m.335.517a.8.8,0,0,1-.671,0,.327.327,0,0,1-.131-.294.331.331,0,0,1,.131-.3.8.8,0,0,1,.671,0,.328.328,0,0,1,.13.294.333.333,0,0,1-.13.3" transform="translate(-1355.559 -144.726)" fill="#101820"/>
      </g>
      <g id="g1060" transform="translate(32.986 11.884)">
        <path id="path1062" d="M1357.2,145.528a.518.518,0,0,1-.34-.1.483.483,0,0,1-.148-.394.464.464,0,0,1,.192-.4.722.722,0,0,1,.4-.089c.1,0,.213.007.329.016v.169c-.1-.008-.225-.015-.321-.015-.27,0-.385.1-.385.321s.107.321.3.321a2.223,2.223,0,0,0,.422-.056v.168a2.418,2.418,0,0,1-.456.06" transform="translate(-1356.717 -144.543)" fill="#101820"/>
      </g>
      <g id="g1064" transform="translate(34.066 12.132)">
        <path id="path1066" d="M1357.95,144.851c-.161,0-.224.058-.236.164h.47c-.005-.112-.072-.164-.234-.164m-.029.612a.448.448,0,0,1-.3-.077.357.357,0,0,1-.112-.293.352.352,0,0,1,.131-.294.516.516,0,0,1,.3-.073.541.541,0,0,1,.3.07c.111.079.121.2.122.344h-.662c0,.107.061.176.257.176a2.394,2.394,0,0,0,.371-.037v.137a2.537,2.537,0,0,1-.42.046" transform="translate(-1357.514 -144.726)" fill="#101820"/>
      </g>
      <g id="g1068" transform="translate(35.135 12.132)">
        <path id="path1070" d="M1358.963,145.444v-.386c0-.127-.065-.173-.18-.173a1.348,1.348,0,0,0-.284.045v.515h-.2v-.7h.159l.007.045a1.646,1.646,0,0,1,.374-.064.342.342,0,0,1,.238.072.27.27,0,0,1,.076.218v.428Z" transform="translate(-1358.303 -144.726)" fill="#101820"/>
      </g>
      <g id="g1072" transform="translate(36.125 11.94)">
        <path id="path1074" d="M1359.453,145.513a.255.255,0,0,1-.228-.1.363.363,0,0,1-.05-.211v-.261h-.141V144.8h.141l.02-.211h.172v.211h.275v.145h-.275v.225a.313.313,0,0,0,.02.133.125.125,0,0,0,.127.065.866.866,0,0,0,.138-.014v.138a.991.991,0,0,1-.2.026" transform="translate(-1359.034 -144.584)" fill="#101820"/>
      </g>
      <g id="g1076" transform="translate(36.924 12.132)">
        <path id="path1078" d="M1359.624,145.444v-.7h.158l.007.045a1.237,1.237,0,0,1,.345-.064h.026v.167h-.068a1.107,1.107,0,0,0-.274.035v.516Z" transform="translate(-1359.624 -144.726)" fill="#101820"/>
      </g>
      <g id="g1080" transform="translate(37.537 12.132)">
        <path id="path1082" d="M1360.707,145.15c-.081-.007-.164-.011-.25-.011-.142,0-.193.03-.193.093s.042.095.151.095a1.375,1.375,0,0,0,.292-.042Zm.042.294-.005-.042a1.728,1.728,0,0,1-.379.061.358.358,0,0,1-.211-.051.216.216,0,0,1,.041-.358.629.629,0,0,1,.261-.038c.073,0,.171,0,.252.009v-.012c0-.108-.072-.145-.268-.145-.076,0-.168,0-.256.012v-.141c.1-.008.208-.014.3-.014a.588.588,0,0,1,.325.065.258.258,0,0,1,.095.24v.413Z" transform="translate(-1360.076 -144.726)" fill="#101820"/>
      </g>
      <path id="path1084" d="M1360.871,144.523h.2v.993h-.2Z" transform="translate(-1322.258 -132.666)" fill="#101820"/>
    </g>
  </g>
</svg>
